<mxfile host="app.diagrams.net" modified="2020-07-24T05:06:41.817Z" agent="5.0 (Macintosh; Intel Mac OS X 10_15_3) AppleWebKit/605.1.15 (KHTML, like Gecko) Version/13.0.5 Safari/605.1.15" etag="TKm1020OLlPe9z4ks_AF" version="13.5.1" type="github">
  <diagram id="R2lEEEUBdFMjLlhIrx00" name="Page-1">
    <mxGraphModel dx="946" dy="594" grid="1" gridSize="10" guides="1" tooltips="1" connect="1" arrows="1" fold="1" page="1" pageScale="1" pageWidth="850" pageHeight="1100" math="0" shadow="0" extFonts="Permanent Marker^https://fonts.googleapis.com/css?family=Permanent+Marker">
      <root>
        <mxCell id="0" />
        <mxCell id="1" parent="0" />
        <mxCell id="deaUnhrbm18fLQYKPsMd-12" style="edgeStyle=orthogonalEdgeStyle;rounded=0;orthogonalLoop=1;jettySize=auto;html=1;entryX=0;entryY=0.5;entryDx=0;entryDy=0;" edge="1" parent="1" source="deaUnhrbm18fLQYKPsMd-1" target="deaUnhrbm18fLQYKPsMd-8">
          <mxGeometry relative="1" as="geometry" />
        </mxCell>
        <mxCell id="deaUnhrbm18fLQYKPsMd-1" value="Customers" style="whiteSpace=wrap;html=1;align=center;" vertex="1" parent="1">
          <mxGeometry x="100" y="180" width="100" height="40" as="geometry" />
        </mxCell>
        <mxCell id="deaUnhrbm18fLQYKPsMd-2" value="Employees" style="whiteSpace=wrap;html=1;align=center;" vertex="1" parent="1">
          <mxGeometry x="100" y="380" width="100" height="40" as="geometry" />
        </mxCell>
        <mxCell id="deaUnhrbm18fLQYKPsMd-15" style="edgeStyle=orthogonalEdgeStyle;rounded=0;orthogonalLoop=1;jettySize=auto;html=1;exitX=0.5;exitY=1;exitDx=0;exitDy=0;" edge="1" parent="1" source="deaUnhrbm18fLQYKPsMd-3" target="deaUnhrbm18fLQYKPsMd-14">
          <mxGeometry relative="1" as="geometry" />
        </mxCell>
        <mxCell id="deaUnhrbm18fLQYKPsMd-26" style="edgeStyle=orthogonalEdgeStyle;rounded=0;orthogonalLoop=1;jettySize=auto;html=1;exitX=0;exitY=1;exitDx=0;exitDy=0;entryX=1;entryY=0.5;entryDx=0;entryDy=0;" edge="1" parent="1" source="deaUnhrbm18fLQYKPsMd-3" target="deaUnhrbm18fLQYKPsMd-25">
          <mxGeometry relative="1" as="geometry" />
        </mxCell>
        <mxCell id="deaUnhrbm18fLQYKPsMd-29" style="edgeStyle=orthogonalEdgeStyle;rounded=0;orthogonalLoop=1;jettySize=auto;html=1;exitX=1;exitY=1;exitDx=0;exitDy=0;entryX=0.5;entryY=0;entryDx=0;entryDy=0;" edge="1" parent="1" source="deaUnhrbm18fLQYKPsMd-3" target="deaUnhrbm18fLQYKPsMd-28">
          <mxGeometry relative="1" as="geometry" />
        </mxCell>
        <mxCell id="deaUnhrbm18fLQYKPsMd-37" style="edgeStyle=orthogonalEdgeStyle;rounded=0;orthogonalLoop=1;jettySize=auto;html=1;exitX=1;exitY=0.5;exitDx=0;exitDy=0;entryX=0;entryY=0.5;entryDx=0;entryDy=0;" edge="1" parent="1" source="deaUnhrbm18fLQYKPsMd-3" target="deaUnhrbm18fLQYKPsMd-32">
          <mxGeometry relative="1" as="geometry" />
        </mxCell>
        <mxCell id="deaUnhrbm18fLQYKPsMd-3" value="Books" style="whiteSpace=wrap;html=1;align=center;" vertex="1" parent="1">
          <mxGeometry x="475" y="180" width="100" height="40" as="geometry" />
        </mxCell>
        <mxCell id="deaUnhrbm18fLQYKPsMd-38" value="" style="edgeStyle=orthogonalEdgeStyle;rounded=0;orthogonalLoop=1;jettySize=auto;html=1;" edge="1" parent="1" source="deaUnhrbm18fLQYKPsMd-4" target="deaUnhrbm18fLQYKPsMd-32">
          <mxGeometry relative="1" as="geometry" />
        </mxCell>
        <mxCell id="deaUnhrbm18fLQYKPsMd-4" value="Category" style="whiteSpace=wrap;html=1;align=center;" vertex="1" parent="1">
          <mxGeometry x="740" y="180" width="100" height="40" as="geometry" />
        </mxCell>
        <mxCell id="deaUnhrbm18fLQYKPsMd-6" value="Authors" style="whiteSpace=wrap;html=1;align=center;" vertex="1" parent="1">
          <mxGeometry x="475" y="380" width="100" height="40" as="geometry" />
        </mxCell>
        <mxCell id="deaUnhrbm18fLQYKPsMd-10" style="edgeStyle=orthogonalEdgeStyle;rounded=0;orthogonalLoop=1;jettySize=auto;html=1;entryX=0.5;entryY=0;entryDx=0;entryDy=0;" edge="1" parent="1" source="deaUnhrbm18fLQYKPsMd-7" target="deaUnhrbm18fLQYKPsMd-8">
          <mxGeometry relative="1" as="geometry" />
        </mxCell>
        <mxCell id="deaUnhrbm18fLQYKPsMd-7" value="Bill No" style="ellipse;whiteSpace=wrap;html=1;align=center;" vertex="1" parent="1">
          <mxGeometry x="270" y="60" width="100" height="40" as="geometry" />
        </mxCell>
        <mxCell id="deaUnhrbm18fLQYKPsMd-13" style="edgeStyle=orthogonalEdgeStyle;rounded=0;orthogonalLoop=1;jettySize=auto;html=1;entryX=0;entryY=0.5;entryDx=0;entryDy=0;" edge="1" parent="1" source="deaUnhrbm18fLQYKPsMd-8" target="deaUnhrbm18fLQYKPsMd-3">
          <mxGeometry relative="1" as="geometry" />
        </mxCell>
        <mxCell id="deaUnhrbm18fLQYKPsMd-8" value="Purchases" style="shape=rhombus;perimeter=rhombusPerimeter;whiteSpace=wrap;html=1;align=center;" vertex="1" parent="1">
          <mxGeometry x="280" y="170" width="120" height="60" as="geometry" />
        </mxCell>
        <mxCell id="deaUnhrbm18fLQYKPsMd-11" style="edgeStyle=orthogonalEdgeStyle;rounded=0;orthogonalLoop=1;jettySize=auto;html=1;exitX=0.5;exitY=1;exitDx=0;exitDy=0;" edge="1" parent="1" source="deaUnhrbm18fLQYKPsMd-9">
          <mxGeometry relative="1" as="geometry">
            <mxPoint x="340" y="170" as="targetPoint" />
          </mxGeometry>
        </mxCell>
        <mxCell id="deaUnhrbm18fLQYKPsMd-9" value="Bill Amount" style="ellipse;whiteSpace=wrap;html=1;align=center;" vertex="1" parent="1">
          <mxGeometry x="390" y="60" width="100" height="40" as="geometry" />
        </mxCell>
        <mxCell id="deaUnhrbm18fLQYKPsMd-16" style="edgeStyle=orthogonalEdgeStyle;rounded=0;orthogonalLoop=1;jettySize=auto;html=1;exitX=0.5;exitY=1;exitDx=0;exitDy=0;entryX=0.5;entryY=0;entryDx=0;entryDy=0;" edge="1" parent="1" source="deaUnhrbm18fLQYKPsMd-14" target="deaUnhrbm18fLQYKPsMd-6">
          <mxGeometry relative="1" as="geometry" />
        </mxCell>
        <mxCell id="deaUnhrbm18fLQYKPsMd-14" value="Written" style="shape=rhombus;perimeter=rhombusPerimeter;whiteSpace=wrap;html=1;align=center;" vertex="1" parent="1">
          <mxGeometry x="465" y="270" width="120" height="60" as="geometry" />
        </mxCell>
        <mxCell id="deaUnhrbm18fLQYKPsMd-21" value="" style="edgeStyle=orthogonalEdgeStyle;rounded=0;orthogonalLoop=1;jettySize=auto;html=1;" edge="1" parent="1" source="deaUnhrbm18fLQYKPsMd-17" target="deaUnhrbm18fLQYKPsMd-1">
          <mxGeometry relative="1" as="geometry" />
        </mxCell>
        <mxCell id="deaUnhrbm18fLQYKPsMd-17" value="Password" style="ellipse;whiteSpace=wrap;html=1;align=center;" vertex="1" parent="1">
          <mxGeometry x="20" y="110" width="100" height="40" as="geometry" />
        </mxCell>
        <mxCell id="deaUnhrbm18fLQYKPsMd-22" style="edgeStyle=orthogonalEdgeStyle;rounded=0;orthogonalLoop=1;jettySize=auto;html=1;exitX=0.5;exitY=1;exitDx=0;exitDy=0;" edge="1" parent="1" source="deaUnhrbm18fLQYKPsMd-18">
          <mxGeometry relative="1" as="geometry">
            <mxPoint x="150" y="180" as="targetPoint" />
          </mxGeometry>
        </mxCell>
        <mxCell id="deaUnhrbm18fLQYKPsMd-18" value="Customer Mobile" style="ellipse;whiteSpace=wrap;html=1;align=center;" vertex="1" parent="1">
          <mxGeometry x="20" y="40" width="100" height="40" as="geometry" />
        </mxCell>
        <mxCell id="deaUnhrbm18fLQYKPsMd-20" value="" style="edgeStyle=orthogonalEdgeStyle;rounded=0;orthogonalLoop=1;jettySize=auto;html=1;" edge="1" parent="1" source="deaUnhrbm18fLQYKPsMd-19" target="deaUnhrbm18fLQYKPsMd-1">
          <mxGeometry relative="1" as="geometry" />
        </mxCell>
        <mxCell id="deaUnhrbm18fLQYKPsMd-19" value="Customer ID" style="ellipse;whiteSpace=wrap;html=1;align=center;" vertex="1" parent="1">
          <mxGeometry x="140" y="40" width="100" height="40" as="geometry" />
        </mxCell>
        <mxCell id="deaUnhrbm18fLQYKPsMd-24" value="" style="edgeStyle=orthogonalEdgeStyle;rounded=0;orthogonalLoop=1;jettySize=auto;html=1;" edge="1" parent="1" source="deaUnhrbm18fLQYKPsMd-23" target="deaUnhrbm18fLQYKPsMd-1">
          <mxGeometry relative="1" as="geometry" />
        </mxCell>
        <mxCell id="deaUnhrbm18fLQYKPsMd-23" value="Customer Name" style="ellipse;whiteSpace=wrap;html=1;align=center;" vertex="1" parent="1">
          <mxGeometry x="140" y="110" width="100" height="40" as="geometry" />
        </mxCell>
        <mxCell id="deaUnhrbm18fLQYKPsMd-27" style="edgeStyle=orthogonalEdgeStyle;rounded=0;orthogonalLoop=1;jettySize=auto;html=1;entryX=0.5;entryY=0;entryDx=0;entryDy=0;" edge="1" parent="1" source="deaUnhrbm18fLQYKPsMd-25" target="deaUnhrbm18fLQYKPsMd-2">
          <mxGeometry relative="1" as="geometry" />
        </mxCell>
        <mxCell id="deaUnhrbm18fLQYKPsMd-25" value="Manages" style="shape=rhombus;perimeter=rhombusPerimeter;whiteSpace=wrap;html=1;align=center;" vertex="1" parent="1">
          <mxGeometry x="280" y="250" width="120" height="60" as="geometry" />
        </mxCell>
        <mxCell id="deaUnhrbm18fLQYKPsMd-31" style="edgeStyle=orthogonalEdgeStyle;rounded=0;orthogonalLoop=1;jettySize=auto;html=1;exitX=0.5;exitY=1;exitDx=0;exitDy=0;entryX=0.5;entryY=0;entryDx=0;entryDy=0;" edge="1" parent="1" source="deaUnhrbm18fLQYKPsMd-28" target="deaUnhrbm18fLQYKPsMd-30">
          <mxGeometry relative="1" as="geometry" />
        </mxCell>
        <mxCell id="deaUnhrbm18fLQYKPsMd-28" value="SoldBy&lt;br&gt;" style="shape=rhombus;perimeter=rhombusPerimeter;whiteSpace=wrap;html=1;align=center;" vertex="1" parent="1">
          <mxGeometry x="620" y="270" width="120" height="60" as="geometry" />
        </mxCell>
        <mxCell id="deaUnhrbm18fLQYKPsMd-30" value="Suppliers" style="whiteSpace=wrap;html=1;align=center;" vertex="1" parent="1">
          <mxGeometry x="630" y="360" width="100" height="40" as="geometry" />
        </mxCell>
        <mxCell id="deaUnhrbm18fLQYKPsMd-32" value="Types" style="shape=rhombus;perimeter=rhombusPerimeter;whiteSpace=wrap;html=1;align=center;rotation=0;" vertex="1" parent="1">
          <mxGeometry x="590" y="170" width="120" height="60" as="geometry" />
        </mxCell>
        <mxCell id="deaUnhrbm18fLQYKPsMd-36" style="edgeStyle=orthogonalEdgeStyle;rounded=0;orthogonalLoop=1;jettySize=auto;html=1;exitX=0.5;exitY=1;exitDx=0;exitDy=0;entryX=0.5;entryY=0;entryDx=0;entryDy=0;" edge="1" parent="1" source="deaUnhrbm18fLQYKPsMd-35" target="deaUnhrbm18fLQYKPsMd-8">
          <mxGeometry relative="1" as="geometry" />
        </mxCell>
        <mxCell id="deaUnhrbm18fLQYKPsMd-35" value="Bill Date" style="ellipse;whiteSpace=wrap;html=1;align=center;" vertex="1" parent="1">
          <mxGeometry x="330" y="10" width="100" height="40" as="geometry" />
        </mxCell>
      </root>
    </mxGraphModel>
  </diagram>
</mxfile>
